<svg xmlns="http://www.w3.org/2000/svg" width="62" height="28" fill="none"><path fill="#FD665E" d="M14 12.7 9.7.5H7.3L3 12.3c-.7 2-1 2.4-2 2.6v.5h4V15c-1.4-.2-1.6-.7-1-2.5l.7-2h4.6l.8 2.2c.5 1.7.3 2.1-1 2.3v.5H16V15c-1-.2-1.4-.6-2-2.2ZM5 9.6l2-6.3 2 6.3H5Z"/><path fill="#FD665E" d="m20 5-4.5.6v.5l.5.1c.5.2.6.4.6 1v6.6c0 .7-.1 1-1.1 1.1v.5h5.8V15c-1-.2-1.3-.4-1.3-1.2V8.3c.5-.4 1.5-.7 2.5-.7l1.5.2c.1-.2.3-.7.3-1.1 0-1-.5-1.7-1.4-1.7-1 0-2 1-3 3l.1-3ZM29.6 15.6c1.8 0 3.4-.7 4.1-1.8v-.5c-.5.5-1.4.9-2.4.9-2 0-3.7-1.7-3.7-4.5 0-2.3 1.2-3.8 3.1-3.8.6 0 1 0 1.4.3-.8 0-1.4.7-1.4 1.5 0 .9.6 1.5 1.5 1.5.8 0 1.5-.6 1.5-1.5 0-1.5-1.4-2.7-4-2.7-3.2 0-5.6 2.2-5.6 5.3 0 3.3 2.4 5.3 5.5 5.3ZM38.4 0 34 .6V1l.5.2c.6.2.7.3.7 1v11.6c0 .7-.2 1-1.2 1.1v.5h5.6V15c-1-.2-1-.3-1-1V7.3c.3-.6.9-1 1.7-1 1.2 0 1.9.7 1.9 2v5.4c0 .8-.2 1-1 1.1v.5h5.6V15c-1-.2-1.2-.4-1.2-1.1V8.3C45.5 6 44 5 42 5c-1.8 0-3 .8-3.6 2V0ZM15.2 17.4l-4.6.6v.5l.6.1c.5.2.6.4.6 1v6.6c0 .7-.2 1-1.2 1v.6h5.6v-.5c-.9-.2-1-.4-1-1v-6.6c.3-.5.9-1 1.7-1 1.1 0 1.7.8 1.7 2.1v5.4c0 .7-.1 1-1 1v.6H23v-.5c-.9-.2-1-.4-1-1v-6.6c.3-.6.9-1 1.7-1 1.1 0 1.7.8 1.7 2.1v5.4c0 .7 0 1-1 1v.6H30v-.5c-1-.2-1.2-.4-1.2-1.1v-5.6c0-2.1-1.3-3.2-3.4-3.2-1.7 0-3 .8-3.5 2-.4-1.3-1.6-2-3.2-2-1.8 0-3 .8-3.5 2v-2ZM36 28c3.3 0 5.8-2.2 5.8-5.4s-2.5-5.2-5.8-5.2-5.7 2.2-5.7 5.3c0 3.3 2.4 5.3 5.7 5.3Zm0-.7c-1.3 0-2.2-1.7-2.2-4.7 0-2.8.8-4.6 2.2-4.6 1.4 0 2.2 1.8 2.2 4.8 0 2.8-.7 4.5-2.1 4.5ZM42.8 19.8l3 8h1.9l3-7.6c.6-1.7.9-2 1.7-2.1v-.5H49v.5c1.1.1 1.2.5.8 2L48 25l-1.6-5c-.5-1.4-.3-1.8.9-2v-.4h-6.2v.5c.8.2 1 .4 1.6 1.7ZM51.6 22.7C51.6 26 54 28 57 28c1.9 0 3.5-.7 4.2-1.8v-.5c-.5.5-1.4.9-2.4.9-2 0-3.6-1.5-3.9-4.2h6.4v-.7c0-2.6-1.6-4.3-4.5-4.3a5 5 0 0 0-5.3 5.3Zm3.4-1.2c0-2.2.7-3.5 2-3.5 1 0 1.5 1.2 1.5 3v.8H55v-.3Z"/></svg>